<svg xmlns="http://www.w3.org/2000/svg" viewBox="0 0 1200 900" role="img" aria-labelledby="t">
<title id="t">VARSHI real-time global communication network</title>
<defs><linearGradient id="bg" x1="0" y1="0" x2="1" y2="1"><stop stop-color="#fbf8f2"/><stop offset="1" stop-color="#f1e7db"/></linearGradient><filter id="sh" x="-30%" y="-30%" width="160%" height="160%"><feDropShadow dy="12" stdDeviation="18" flood-color="#53493f" flood-opacity=".1"/></filter></defs>
<rect width="1200" height="900" rx="54" fill="url(#bg)"/>
<g fill="#d8c8b4" opacity=".28"><path d="M170 260c60-95 150-120 225-105 65 12 75 55 115 79 34 20 70 10 87 44 14 29-3 58-31 70-27 11-42 35-35 67 7 33-17 64-50 70-37 7-54-29-87-32-32-2-59 26-92 17-31-9-38-44-57-67-22-27-70-25-86-60-13-29-5-58 11-83zM710 170c69-36 140-18 189 28 39 37 78 34 102 80 27 53-19 82-28 125-8 38 28 72 5 112-23 40-65 33-97 55-39 27-53 84-102 88-44 4-58-50-94-68-35-18-82-5-106-39-22-31 6-65 10-99 4-39-31-72-15-113 17-43 64-48 88-80 21-29 16-69 48-89z"/></g>
<g fill="none" stroke="#c9b79f" stroke-width="1.5" stroke-dasharray="4 8" opacity=".65"><path d="M130 510C340 210 640 195 1055 315"/><path d="M150 665C380 420 735 365 1055 560"/><path d="M240 225C500 470 760 540 1035 205"/><ellipse cx="600" cy="440" rx="455" ry="265"/></g>
<circle cx="600" cy="440" r="78" fill="#faf4eb" stroke="#fff" stroke-width="9" filter="url(#sh)"/><path d="M564 410 L592 462 Q600 477 610 460 L640 410" fill="none" stroke="#151412" stroke-width="13" stroke-linecap="round" stroke-linejoin="round"/>
<g stroke="#28241f" fill="#f8f0e6" stroke-width="2"><circle cx="170" cy="560" r="38"/><path d="M115 700c0-76 24-110 55-110 34 0 60 34 60 110"/><circle cx="390" cy="610" r="42"/><path d="M330 790c0-92 27-138 60-138 35 0 64 46 64 138"/><circle cx="830" cy="550" r="38"/><path d="M775 690c0-72 23-104 55-104s58 32 58 104"/><circle cx="1040" cy="635" r="38"/><path d="M985 795c0-83 23-125 55-125 33 0 58 42 58 125"/></g>
<g fill="#fff" stroke="#2d2924" stroke-width="3"><rect x="205" y="590" width="31" height="54" rx="6" transform="rotate(14 220 617)"/><rect x="445" y="635" width="31" height="54" rx="6" transform="rotate(-12 460 662)"/><rect x="760" y="600" width="31" height="54" rx="6" transform="rotate(14 775 627)"/><rect x="938" y="707" width="85" height="55" rx="5" transform="rotate(8 980 734)"/></g>
<g filter="url(#sh)" font-family="Arial,sans-serif"><g><rect x="80" y="145" width="210" height="120" rx="26" fill="#fff" fill-opacity=".75" stroke="#fff"/><text x="108" y="184" font-size="21" fill="#181614">안녕하세요</text><path d="M108 210h58m8 0h52" stroke="#191715" stroke-width="3" stroke-dasharray="3 4"/><text x="108" y="242" font-size="18" fill="#6e665d">Hello</text></g>
<g><rect x="400" y="100" width="205" height="130" rx="26" fill="#fff" fill-opacity=".75" stroke="#fff"/><text x="430" y="145" font-size="28" fill="#181614">你好</text><path d="M430 168h145" stroke="#d8cbbb"/><text x="430" y="202" font-size="18" fill="#6e665d">Hello</text></g>
<g><rect x="850" y="128" width="210" height="130" rx="26" fill="#fff" fill-opacity=".75" stroke="#fff"/><text x="880" y="173" font-size="26" fill="#181614">مرحبا</text><path d="M880 194h150" stroke="#d8cbbb"/><text x="880" y="228" font-size="18" fill="#6e665d">Hello</text></g>
<g><rect x="665" y="600" width="220" height="135" rx="26" fill="#fff" fill-opacity=".75" stroke="#fff"/><text x="695" y="645" font-size="22" fill="#181614">¿Cómo estás?</text><path d="M695 668h160" stroke="#d8cbbb"/><text x="695" y="706" font-size="18" fill="#6e665d">How are you?</text></g></g>
<g fill="#fff" stroke="#c9b79f"><circle cx="300" cy="365" r="8"/><circle cx="500" cy="300" r="8"/><circle cx="690" cy="285" r="8"/><circle cx="910" cy="365" r="8"/><circle cx="270" cy="500" r="8"/><circle cx="760" cy="495" r="8"/></g>
<g transform="translate(420 790)" filter="url(#sh)"><rect width="360" height="72" rx="34" fill="#fff" fill-opacity=".66" stroke="#fff"/><path d="M35 36h10v-12h8v24h8V17h8v38h8V28h8v18h8V22h8v28" stroke="#171513" stroke-width="3" fill="none"/><circle cx="170" cy="36" r="25" fill="#faf4eb" stroke="#ddd0c0"/><path d="M158 27l10 18 11-18" fill="none" stroke="#151412" stroke-width="4" stroke-linecap="round" stroke-linejoin="round"/><text x="235" y="43" fill="#6f6559" font-family="Arial,sans-serif" font-size="13" letter-spacing="2">REAL-TIME · GLOBAL</text></g>
</svg>